<svg width="7" height="10" viewBox="0 0 7 10" fill="none" xmlns="http://www.w3.org/2000/svg">
<path d="M3.5 0.75C1.94919 0.75 0.6875 1.93283 0.6875 3.38672H1.8125C1.8125 2.51449 2.56963 1.80469 3.5 1.80469C4.43038 1.80469 5.1875 2.51449 5.1875 3.38672C5.1875 3.95045 4.93213 4.15928 4.35444 4.57588C4.13956 4.73092 3.89713 4.906 3.66481 5.12326C2.92681 5.81461 2.93469 6.49646 2.9375 6.55078V7.60547H4.0625V6.54604C4.0625 6.53338 4.07544 6.2291 4.46019 5.86893C4.64019 5.70018 4.84381 5.55357 5.04012 5.41172C5.63637 4.98141 6.3125 4.49414 6.3125 3.38672C6.3125 1.93283 5.05081 0.75 3.5 0.75ZM2.9375 8.13281H4.0625V9.1875H2.9375V8.13281Z" fill="white"/>
</svg>
